<svg width="109" height="53" viewBox="0 0 109 53" fill="none" xmlns="http://www.w3.org/2000/svg">
<g filter="url(#filter0_d)">
<rect x="4.94098" y="0.0722656" width="99.8665" height="44.4" rx="20" fill="#4E7099" fill-opacity="0.9"/>
</g>
<path d="M41.6428 24.9613C41.6428 25.6413 41.4672 26.2136 41.1158 26.6783C40.7645 27.1316 40.2885 27.4773 39.6878 27.7153C39.0985 27.9533 38.4525 28.0723 37.7498 28.0723H31.9188V16.0023H38.3788C38.9455 16.0023 39.4328 16.1553 39.8408 16.4613C40.2488 16.7559 40.5662 17.1413 40.7928 17.6173C41.0195 18.0933 41.1328 18.5806 41.1328 19.0793C41.1328 19.6686 40.9855 20.2239 40.6908 20.7453C40.3962 21.2553 39.9655 21.6349 39.3988 21.8843C40.0902 22.0883 40.6342 22.4566 41.0308 22.9893C41.4388 23.5219 41.6428 24.1793 41.6428 24.9613ZM34.2648 18.0083V21.0513H37.3928C37.7782 21.0513 38.1125 20.9153 38.3958 20.6433C38.6792 20.3713 38.8208 19.9973 38.8208 19.5213C38.8208 19.0679 38.6905 18.7053 38.4298 18.4333C38.1805 18.1499 37.8688 18.0083 37.4948 18.0083H34.2648ZM39.2798 24.5193C39.2798 24.0773 39.1438 23.6976 38.8718 23.3803C38.5998 23.0629 38.2655 22.9043 37.8688 22.9043H34.2648V26.0833H37.7498C38.1805 26.0833 38.5432 25.9303 38.8378 25.6243C39.1325 25.3183 39.2798 24.9499 39.2798 24.5193ZM48.6245 28.1573C47.7405 28.1573 46.9359 27.9873 46.2105 27.6473C45.4965 27.3073 44.8789 26.8483 44.3575 26.2703C43.8475 25.6809 43.4509 25.0236 43.1675 24.2983C42.8842 23.5616 42.7425 22.8079 42.7425 22.0373C42.7425 21.2326 42.8899 20.4676 43.1845 19.7423C43.4792 19.0056 43.8929 18.3539 44.4255 17.7873C44.9582 17.2093 45.5815 16.7559 46.2955 16.4273C47.0209 16.0873 47.8142 15.9173 48.6755 15.9173C49.5482 15.9173 50.3415 16.0929 51.0555 16.4443C51.7809 16.7956 52.3985 17.2659 52.9085 17.8553C53.4299 18.4446 53.8265 19.1076 54.0985 19.8443C54.3819 20.5696 54.5235 21.3119 54.5235 22.0713C54.5235 22.8646 54.3762 23.6296 54.0815 24.3663C53.7869 25.0916 53.3732 25.7433 52.8405 26.3213C52.3192 26.8879 51.6959 27.3356 50.9705 27.6643C50.2565 27.9929 49.4745 28.1573 48.6245 28.1573ZM45.1225 22.0373C45.1225 22.7399 45.2585 23.3973 45.5305 24.0093C45.8139 24.6213 46.2162 25.1199 46.7375 25.5053C47.2702 25.8906 47.9049 26.0833 48.6415 26.0833C49.4009 26.0833 50.0412 25.8849 50.5625 25.4883C51.0839 25.0916 51.4805 24.5816 51.7525 23.9583C52.0245 23.3349 52.1605 22.6946 52.1605 22.0373C52.1605 21.3346 52.0189 20.6773 51.7355 20.0653C51.4522 19.4533 51.0442 18.9603 50.5115 18.5863C49.9902 18.2009 49.3669 18.0083 48.6415 18.0083C47.8822 18.0083 47.2419 18.2066 46.7205 18.6033C46.1992 18.9999 45.8025 19.5099 45.5305 20.1333C45.2585 20.7453 45.1225 21.3799 45.1225 22.0373ZM61.4741 28.1573C60.5901 28.1573 59.7855 27.9873 59.0601 27.6473C58.3461 27.3073 57.7285 26.8483 57.2071 26.2703C56.6971 25.6809 56.3005 25.0236 56.0171 24.2983C55.7338 23.5616 55.5921 22.8079 55.5921 22.0373C55.5921 21.2326 55.7395 20.4676 56.0341 19.7423C56.3288 19.0056 56.7425 18.3539 57.2751 17.7873C57.8078 17.2093 58.4311 16.7559 59.1451 16.4273C59.8705 16.0873 60.6638 15.9173 61.5251 15.9173C62.3978 15.9173 63.1911 16.0929 63.9051 16.4443C64.6305 16.7956 65.2481 17.2659 65.7581 17.8553C66.2795 18.4446 66.6761 19.1076 66.9481 19.8443C67.2315 20.5696 67.3731 21.3119 67.3731 22.0713C67.3731 22.8646 67.2258 23.6296 66.9311 24.3663C66.6365 25.0916 66.2228 25.7433 65.6901 26.3213C65.1688 26.8879 64.5455 27.3356 63.8201 27.6643C63.1061 27.9929 62.3241 28.1573 61.4741 28.1573ZM57.9721 22.0373C57.9721 22.7399 58.1081 23.3973 58.3801 24.0093C58.6635 24.6213 59.0658 25.1199 59.5871 25.5053C60.1198 25.8906 60.7545 26.0833 61.4911 26.0833C62.2505 26.0833 62.8908 25.8849 63.4121 25.4883C63.9335 25.0916 64.3301 24.5816 64.6021 23.9583C64.8741 23.3349 65.0101 22.6946 65.0101 22.0373C65.0101 21.3346 64.8685 20.6773 64.5851 20.0653C64.3018 19.4533 63.8938 18.9603 63.3611 18.5863C62.8398 18.2009 62.2165 18.0083 61.4911 18.0083C60.7318 18.0083 60.0915 18.2066 59.5701 18.6033C59.0488 18.9999 58.6521 19.5099 58.3801 20.1333C58.1081 20.7453 57.9721 21.3799 57.9721 22.0373ZM69.1727 28.0723V16.0193H71.5187V21.7483L76.5847 16.0023H79.1687L74.5447 21.3573L79.4577 28.0723H76.8057L73.0487 22.8703L71.5187 24.4683V28.0723H69.1727Z" fill="white"/>
<defs>
<filter id="filter0_d" x="0.940979" y="0.0722656" width="107.866" height="52.4" filterUnits="userSpaceOnUse" color-interpolation-filters="sRGB">
<feFlood flood-opacity="0" result="BackgroundImageFix"/>
<feColorMatrix in="SourceAlpha" type="matrix" values="0 0 0 0 0 0 0 0 0 0 0 0 0 0 0 0 0 0 127 0"/>
<feOffset dy="4"/>
<feGaussianBlur stdDeviation="2"/>
<feColorMatrix type="matrix" values="0 0 0 0 0 0 0 0 0 0 0 0 0 0 0 0 0 0 0.25 0"/>
<feBlend mode="normal" in2="BackgroundImageFix" result="effect1_dropShadow"/>
<feBlend mode="normal" in="SourceGraphic" in2="effect1_dropShadow" result="shape"/>
</filter>
</defs>
</svg>
