<svg width="70" height="65" viewBox="0 0 70 65" fill="none" xmlns="http://www.w3.org/2000/svg">
<g filter="url(#filter0_d)">
<ellipse cx="34.6572" cy="31" rx="30.6572" ry="28" fill="#AFD3ED"/>
<path d="M43.6723 35.816V41H28.1203V35.816H33.2323V26.636C32.9443 27.02 32.4523 27.404 31.7563 27.788C31.0843 28.172 30.3403 28.508 29.5243 28.796C28.7323 29.06 28.0243 29.192 27.4003 29.192V23.864C27.8083 23.864 28.3123 23.732 28.9123 23.468C29.5123 23.204 30.1123 22.892 30.7123 22.532C31.3363 22.148 31.8763 21.764 32.3323 21.38C32.8123 20.996 33.1123 20.684 33.2323 20.444H39.1003V35.816H43.6723Z" fill="white"/>
<ellipse cx="34.6572" cy="31" rx="30.6572" ry="28" fill="#AFD3ED"/>
<path d="M43.6723 35.816V41H28.1203V35.816H33.2323V26.636C32.9443 27.02 32.4523 27.404 31.7563 27.788C31.0843 28.172 30.3403 28.508 29.5243 28.796C28.7323 29.06 28.0243 29.192 27.4003 29.192V23.864C27.8083 23.864 28.3123 23.732 28.9123 23.468C29.5123 23.204 30.1123 22.892 30.7123 22.532C31.3363 22.148 31.8763 21.764 32.3323 21.38C32.8123 20.996 33.1123 20.684 33.2323 20.444H39.1003V35.816H43.6723Z" fill="white"/>
<ellipse cx="34.6572" cy="31" rx="30.6572" ry="28" fill="#AFD3ED"/>
<path d="M43.6723 35.816V41H28.1203V35.816H33.2323V26.636C32.9443 27.02 32.4523 27.404 31.7563 27.788C31.0843 28.172 30.3403 28.508 29.5243 28.796C28.7323 29.06 28.0243 29.192 27.4003 29.192V23.864C27.8083 23.864 28.3123 23.732 28.9123 23.468C29.5123 23.204 30.1123 22.892 30.7123 22.532C31.3363 22.148 31.8763 21.764 32.3323 21.38C32.8123 20.996 33.1123 20.684 33.2323 20.444H39.1003V35.816H43.6723Z" fill="white"/>
<ellipse cx="34.6572" cy="31" rx="30.6572" ry="28" fill="#AFD3ED"/>
<path d="M43.6723 35.816V41H28.1203V35.816H33.2323V26.636C32.9443 27.02 32.4523 27.404 31.7563 27.788C31.0843 28.172 30.3403 28.508 29.5243 28.796C28.7323 29.06 28.0243 29.192 27.4003 29.192V23.864C27.8083 23.864 28.3123 23.732 28.9123 23.468C29.5123 23.204 30.1123 22.892 30.7123 22.532C31.3363 22.148 31.8763 21.764 32.3323 21.38C32.8123 20.996 33.1123 20.684 33.2323 20.444H39.1003V35.816H43.6723Z" fill="white"/>
</g>
<defs>
<filter id="filter0_d" x="0" y="1" width="69.3144" height="64" filterUnits="userSpaceOnUse" color-interpolation-filters="sRGB">
<feFlood flood-opacity="0" result="BackgroundImageFix"/>
<feColorMatrix in="SourceAlpha" type="matrix" values="0 0 0 0 0 0 0 0 0 0 0 0 0 0 0 0 0 0 127 0"/>
<feOffset dy="2"/>
<feGaussianBlur stdDeviation="2"/>
<feColorMatrix type="matrix" values="0 0 0 0 0 0 0 0 0 0 0 0 0 0 0 0 0 0 0.25 0"/>
<feBlend mode="normal" in2="BackgroundImageFix" result="effect1_dropShadow"/>
<feBlend mode="normal" in="SourceGraphic" in2="effect1_dropShadow" result="shape"/>
</filter>
</defs>
</svg>
