<svg width="70" height="65" viewBox="0 0 70 65" fill="none" xmlns="http://www.w3.org/2000/svg">
<g filter="url(#filter0_d)">
<ellipse cx="34.6572" cy="31" rx="30.6572" ry="28" fill="#AFD3ED"/>
<path d="M39.1046 32.468C40.5926 32.732 41.8046 33.464 42.7406 34.664C43.6766 35.84 44.1446 37.268 44.1446 38.948C44.1446 40.436 43.7486 41.732 42.9566 42.836C42.1646 43.94 41.0366 44.792 39.5726 45.392C38.1086 45.992 36.3806 46.292 34.3886 46.292C30.7646 46.292 27.9086 45.224 25.8206 43.088L28.9166 38.984C29.5646 39.656 30.3086 40.172 31.1486 40.532C31.9886 40.868 32.9726 41.036 34.1006 41.036C36.8126 41.036 38.1686 40.04 38.1686 38.048C38.1686 36.968 37.7606 36.152 36.9446 35.6C36.1286 35.048 34.8686 34.772 33.1646 34.772H32.0846V30.632H33.2726C34.5926 30.632 35.6366 30.356 36.4046 29.804C37.1726 29.228 37.5566 28.496 37.5566 27.608C37.5566 26.816 37.2806 26.216 36.7286 25.808C36.1766 25.4 35.4446 25.196 34.5326 25.196C32.5166 25.196 30.9446 26.096 29.8166 27.896L26.1806 23.72C26.7086 23.048 27.4286 22.448 28.3406 21.92C29.2766 21.392 30.3326 20.984 31.5086 20.696C32.6846 20.408 33.9086 20.264 35.1806 20.264C36.8846 20.264 38.3726 20.528 39.6446 21.056C40.9406 21.584 41.9366 22.328 42.6326 23.288C43.3526 24.224 43.7126 25.34 43.7126 26.636C43.7126 27.572 43.5206 28.46 43.1366 29.3C42.7526 30.116 42.2126 30.812 41.5166 31.388C40.8206 31.94 40.0166 32.3 39.1046 32.468Z" fill="white"/>
</g>
<defs>
<filter id="filter0_d" x="0" y="1" width="69.3144" height="64" filterUnits="userSpaceOnUse" color-interpolation-filters="sRGB">
<feFlood flood-opacity="0" result="BackgroundImageFix"/>
<feColorMatrix in="SourceAlpha" type="matrix" values="0 0 0 0 0 0 0 0 0 0 0 0 0 0 0 0 0 0 127 0"/>
<feOffset dy="2"/>
<feGaussianBlur stdDeviation="2"/>
<feColorMatrix type="matrix" values="0 0 0 0 0 0 0 0 0 0 0 0 0 0 0 0 0 0 0.25 0"/>
<feBlend mode="normal" in2="BackgroundImageFix" result="effect1_dropShadow"/>
<feBlend mode="normal" in="SourceGraphic" in2="effect1_dropShadow" result="shape"/>
</filter>
</defs>
</svg>
