<svg width="145" height="147" viewBox="0 0 145 147" fill="none" xmlns="http://www.w3.org/2000/svg">
<path d="M121.727 0H23.2727C18.5436 0 14.696 3.90065 14.696 8.69493V138.305C14.696 143.099 18.5433 147 23.2727 147H121.727C126.456 147 130.304 143.099 130.304 138.305V8.69493C130.304 3.90065 126.456 0 121.727 0ZM125.405 138.305C125.405 140.361 123.755 142.034 121.727 142.034H23.2727C21.2449 142.034 19.5949 140.361 19.5949 138.305V8.69493C19.5949 6.63915 21.2449 4.96645 23.2727 4.96645H121.727C123.755 4.96645 125.405 6.63915 125.405 8.69493V138.305Z" fill="black"/>
<path d="M120.507 15.8623H24.4936C23.5918 15.8623 22.8606 16.6036 22.8606 17.5178V129.482C22.8606 130.397 23.5918 131.138 24.4936 131.138H120.507C121.408 131.138 122.14 130.397 122.14 129.482V17.5178C122.14 16.6033 121.408 15.8623 120.507 15.8623ZM118.874 127.827H26.1265V19.1733H118.874V127.827Z" fill="black"/>
<path d="M72.5009 134.583C71.8543 134.583 71.224 134.848 70.7667 135.312C70.3128 135.772 70.0515 136.414 70.0515 137.067C70.0515 137.719 70.3128 138.361 70.7667 138.822C71.224 139.285 71.8543 139.55 72.5009 139.55C73.1443 139.55 73.7779 139.285 74.2319 138.822C74.6891 138.361 74.9504 137.719 74.9504 137.067C74.9504 136.414 74.6891 135.772 74.2319 135.312C73.7747 134.848 73.1443 134.583 72.5009 134.583Z" fill="black"/>
<path d="M72.5009 12.3325C72.9287 12.3325 73.35 12.157 73.6538 11.8491C73.9575 11.5411 74.1338 11.114 74.1338 10.677C74.1338 10.2399 73.9575 9.81612 73.6538 9.50489C73.35 9.19697 72.9287 9.02148 72.5009 9.02148C72.0698 9.02148 71.6485 9.19697 71.3447 9.50489C71.041 9.81281 70.8679 10.2399 70.8679 10.677C70.8679 11.114 71.041 11.5411 71.3447 11.8491C71.6485 12.157 72.0698 12.3325 72.5009 12.3325Z" fill="black"/>
<path d="M71.7666 89.2095C71.5871 89.1727 71.403 89.1661 71.2212 89.1918C69.3994 88.9907 68.025 87.5288 68.0219 85.7898C68.0219 84.9564 67.3095 84.2807 66.4308 84.2807C65.5522 84.2807 64.8398 84.9564 64.8398 85.7898C64.8444 88.6937 66.8923 91.2373 69.8445 92.0059V93.5149C69.8445 94.3483 70.5569 95.024 71.4356 95.024C72.3143 95.024 73.0267 94.3483 73.0267 93.5149V92.0972C76.4341 91.4208 78.7501 88.4108 78.3919 85.1266C78.033 81.8425 75.1157 79.3468 71.6345 79.3461C69.6394 79.3461 68.0219 77.8119 68.0219 75.9197C68.0219 74.0275 69.6394 72.4934 71.6345 72.4934C73.6295 72.4934 75.247 74.0275 75.247 75.9197C75.247 76.7531 75.9595 77.4288 76.8381 77.4288C77.7168 77.4288 78.4292 76.7531 78.4292 75.9197C78.4245 72.8706 76.1723 70.2408 73.0267 69.6116V68.2381C73.0267 67.4047 72.3143 66.729 71.4356 66.729C70.5569 66.729 69.8445 67.4047 69.8445 68.2381V69.7037C66.5614 70.554 64.4482 73.5773 64.9004 76.7767C65.3525 79.9761 68.2309 82.3642 71.6345 82.3635C73.6031 82.3635 75.209 83.8585 75.2447 85.725C75.2812 87.5914 73.7337 89.1417 71.7666 89.2095Z" fill="black"/>
<path d="M48.562 80.9713C48.562 93.0571 58.8916 102.854 71.6342 102.854C84.3768 102.854 94.7064 93.0571 94.7064 80.9713C94.7064 68.8855 84.3768 59.0884 71.6342 59.0884C58.8978 59.1016 48.5768 68.8914 48.562 80.9713ZM71.6342 62.1065C82.6195 62.1065 91.5243 70.5523 91.5243 80.9713C91.5243 91.3903 82.6195 99.8361 71.6342 99.8361C60.6489 99.8361 51.7442 91.3903 51.7442 80.9713C51.7566 70.5574 60.6544 62.1183 71.6342 62.1065Z" fill="black"/>
<path d="M73.2254 54.8452V40.5091C73.2254 39.6757 72.513 39 71.6343 39C70.7556 39 70.0432 39.6757 70.0432 40.5091V54.8452C70.0432 55.6786 70.7556 56.3543 71.6343 56.3543C72.513 56.3543 73.2254 55.6786 73.2254 54.8452Z" fill="black"/>
<path d="M85.1582 54.8453V48.0545C85.1582 47.2211 84.4458 46.5454 83.5672 46.5454C82.6885 46.5454 81.9761 47.2211 81.9761 48.0545V54.8453C81.9761 55.6786 82.6885 56.3543 83.5672 56.3543C84.4458 56.3543 85.1582 55.6786 85.1582 54.8453Z" fill="black"/>
<path d="M61.2923 54.8453V48.0545C61.2923 47.2211 60.5799 46.5454 59.7012 46.5454C58.8225 46.5454 58.1101 47.2211 58.1101 48.0545V54.8453C58.1101 55.6786 58.8225 56.3543 59.7012 56.3543C60.5799 56.3543 61.2923 55.6786 61.2923 54.8453Z" fill="black"/>
</svg>
