<svg width="145" height="147" viewBox="0 0 145 147" fill="none" xmlns="http://www.w3.org/2000/svg">
<path d="M121.727 0H23.2727C18.5436 0 14.696 3.90065 14.696 8.69493V138.305C14.696 143.099 18.5433 147 23.2727 147H121.727C126.456 147 130.304 143.099 130.304 138.305V8.69493C130.304 3.90065 126.456 0 121.727 0ZM125.405 138.305C125.405 140.361 123.755 142.034 121.727 142.034H23.2727C21.2449 142.034 19.5949 140.361 19.5949 138.305V8.69493C19.5949 6.63915 21.2449 4.96645 23.2727 4.96645H121.727C123.755 4.96645 125.405 6.63915 125.405 8.69493V138.305Z" fill="black"/>
<path d="M120.507 15.8623H24.4936C23.5918 15.8623 22.8606 16.6036 22.8606 17.5178V129.482C22.8606 130.397 23.5918 131.138 24.4936 131.138H120.507C121.408 131.138 122.14 130.397 122.14 129.482V17.5178C122.14 16.6033 121.408 15.8623 120.507 15.8623ZM118.874 127.827H26.1265V19.1733H118.874V127.827Z" fill="black"/>
<path d="M72.5009 134.583C71.8543 134.583 71.224 134.848 70.7667 135.312C70.3128 135.772 70.0515 136.414 70.0515 137.067C70.0515 137.719 70.3128 138.361 70.7667 138.822C71.224 139.285 71.8543 139.55 72.5009 139.55C73.1443 139.55 73.7779 139.285 74.2319 138.822C74.6891 138.361 74.9504 137.719 74.9504 137.067C74.9504 136.414 74.6891 135.772 74.2319 135.312C73.7747 134.848 73.1443 134.583 72.5009 134.583Z" fill="black"/>
<path d="M72.5009 12.3325C72.9287 12.3325 73.35 12.157 73.6538 11.8491C73.9575 11.5411 74.1338 11.114 74.1338 10.677C74.1338 10.2399 73.9575 9.81612 73.6538 9.50489C73.35 9.19697 72.9287 9.02148 72.5009 9.02148C72.0698 9.02148 71.6485 9.19697 71.3447 9.50489C71.041 9.81281 70.8679 10.2399 70.8679 10.677C70.8679 11.114 71.041 11.5411 71.3447 11.8491C71.6485 12.157 72.0698 12.3325 72.5009 12.3325Z" fill="black"/>
<g clip-path="url(#clip0)">
<path d="M82.5 49.5625H64.5C63.672 49.5625 63 50.2765 63 51.1562C63 52.036 63.672 52.75 64.5 52.75H82.5C83.328 52.75 84 52.036 84 51.1562C84 50.2765 83.328 49.5625 82.5 49.5625Z" fill="black"/>
<path d="M76.5 55.9375H64.5C63.672 55.9375 63 56.6515 63 57.5313C63 58.411 63.672 59.125 64.5 59.125H76.5C77.328 59.125 78 58.411 78 57.5313C78 56.6515 77.328 55.9375 76.5 55.9375Z" fill="black"/>
<path d="M87 40H60C56.691 40 54 42.8592 54 46.375V78.25C54 78.8684 54.336 79.4326 54.864 79.6939C55.065 79.7928 55.284 79.8438 55.5 79.8438C55.845 79.8438 56.187 79.7162 56.46 79.474L65.043 71.875H87C90.309 71.875 93 69.0158 93 65.5V46.375C93 42.8592 90.309 40 87 40ZM90 65.5C90 67.2563 88.656 68.6875 87 68.6875H64.5C64.149 68.6875 63.81 68.8182 63.54 69.0573L57 74.8489V46.375C57 44.6187 58.344 43.1875 60 43.1875H87C88.656 43.1875 90 44.6187 90 46.375V65.5Z" fill="black"/>
<path d="M96 52.75C95.172 52.75 94.5 53.464 94.5 54.3437C94.5 55.2235 95.172 55.9375 96 55.9375C97.656 55.9375 99 57.3687 99 59.125V86.0881L93.936 81.7849C93.672 81.5618 93.339 81.4375 93 81.4375H72C70.344 81.4375 69 80.0063 69 78.25V76.6562C69 75.7765 68.328 75.0625 67.5 75.0625C66.672 75.0625 66 75.7765 66 76.6562V78.25C66 81.7658 68.691 84.625 72 84.625H92.472L99.561 90.6526C99.834 90.8821 100.167 91 100.5 91C100.719 91 100.941 90.949 101.151 90.8438C101.67 90.5761 102 90.0182 102 89.4062V59.125C102 55.6092 99.309 52.75 96 52.75Z" fill="black"/>
<g clip-path="url(#clip1)">
<path d="M168.62 -24.8521H1.17945C-6.8632 -24.8521 -13.4067 -18.7205 -13.4067 -11.1842V192.554C-13.4067 200.09 -6.86375 206.222 1.17945 206.222H168.62C176.663 206.222 183.207 200.09 183.207 192.554V-11.1842C183.207 -18.7205 176.663 -24.8521 168.62 -24.8521ZM174.875 192.554C174.875 195.786 172.069 198.415 168.62 198.415H1.17945C-2.26922 198.415 -5.07526 195.786 -5.07526 192.554V-11.1842C-5.07526 -14.4158 -2.26922 -17.0451 1.17945 -17.0451H168.62C172.069 -17.0451 174.875 -14.4158 174.875 -11.1842V192.554Z" fill="black"/>
<path d="M166.544 0.0820312H3.25567C1.72213 0.0820312 0.478516 1.24734 0.478516 2.68434V178.685C0.478516 180.122 1.72213 181.288 3.25567 181.288H166.544C168.078 181.288 169.321 180.122 169.321 178.685V2.68434C169.321 1.24682 168.078 0.0820312 166.544 0.0820312ZM163.767 176.083H6.03283V5.28665H163.767V176.083Z" fill="black"/>
</g>
</g>
<path d="M109.639 97.0125L97.1755 102.598C95.4546 99.562 92.1536 97.63 88.5209 97.5327L77.0151 97.2328C75.1932 97.1835 73.4056 96.7458 71.7858 95.9522L70.615 95.3767C64.6205 92.4131 57.4754 92.4205 51.4871 95.3959L51.5601 92.8803C51.5842 92.0469 50.892 91.3528 50.0133 91.3299L37.3966 91.0006C36.5179 90.9777 35.7868 91.6343 35.7627 92.4676L35.0006 118.727C34.9765 119.561 35.6687 120.255 36.5474 120.278L49.1642 120.607H49.2077C50.07 120.607 50.7755 119.957 50.7988 119.139L50.8353 117.883L54.113 116.218C55.3995 115.562 56.9036 115.406 58.309 115.783L77.8821 120.993C77.9163 121.003 77.9504 121.01 77.9854 121.018C79.4001 121.298 80.842 121.439 82.2871 121.438C85.348 121.44 88.3733 120.814 91.1553 119.603C91.2237 119.573 91.2897 119.539 91.3526 119.5L119.732 102.089C120.439 101.655 120.667 100.775 120.253 100.079C118.146 96.5336 113.473 95.1829 109.639 97.0125ZM38.2255 117.302L38.8998 94.0592L48.3352 94.3053L47.6609 117.549L38.2255 117.302ZM89.7219 116.907C86.2655 118.387 82.4052 118.795 78.69 118.075L59.1698 112.878C56.9727 112.29 54.6211 112.533 52.6113 113.558L50.9363 114.41L51.3845 98.9556C56.6923 95.6074 63.4994 95.2632 69.1521 98.0566L70.3229 98.6321C72.3692 99.6342 74.6261 100.187 76.9281 100.25L88.4346 100.55C91.6665 100.639 94.4113 102.821 95.067 105.824L77.9279 105.376C77.0492 105.353 76.3182 106.01 76.2933 106.843C76.2692 107.676 76.9622 108.37 77.8401 108.393L96.7544 108.887H96.7987C97.6603 108.886 98.3649 108.235 98.3882 107.419C98.4076 106.763 98.3563 106.107 98.2344 105.461L111.018 99.7322C111.031 99.7271 111.043 99.7212 111.055 99.7153C112.869 98.8451 115.061 99.1361 116.553 100.446L89.7219 116.907Z" fill="black"/>
<defs>
<clipPath id="clip0">
<rect width="48" height="51" fill="white" transform="translate(54 40)"/>
</clipPath>
<clipPath id="clip1">
<rect width="246.6" height="231.074" fill="white" transform="translate(-38.3999 -24.8521)"/>
</clipPath>
</defs>
</svg>
