<svg width="145" height="147" viewBox="0 0 145 147" fill="none" xmlns="http://www.w3.org/2000/svg">
<path d="M121.727 0H23.2727C18.5436 0 14.696 3.90065 14.696 8.69493V138.305C14.696 143.099 18.5433 147 23.2727 147H121.727C126.456 147 130.304 143.099 130.304 138.305V8.69493C130.304 3.90065 126.456 0 121.727 0ZM125.405 138.305C125.405 140.361 123.755 142.034 121.727 142.034H23.2727C21.2449 142.034 19.5949 140.361 19.5949 138.305V8.69493C19.5949 6.63915 21.2449 4.96645 23.2727 4.96645H121.727C123.755 4.96645 125.405 6.63915 125.405 8.69493V138.305Z" fill="black"/>
<path d="M120.507 15.8623H24.4936C23.5918 15.8623 22.8606 16.6036 22.8606 17.5178V129.482C22.8606 130.397 23.5918 131.138 24.4936 131.138H120.507C121.408 131.138 122.14 130.397 122.14 129.482V17.5178C122.14 16.6033 121.408 15.8623 120.507 15.8623ZM118.874 127.827H26.1265V19.1733H118.874V127.827Z" fill="black"/>
<path d="M72.5009 134.583C71.8543 134.583 71.224 134.848 70.7667 135.312C70.3128 135.772 70.0515 136.414 70.0515 137.067C70.0515 137.719 70.3128 138.361 70.7667 138.822C71.224 139.285 71.8543 139.55 72.5009 139.55C73.1443 139.55 73.7779 139.285 74.2319 138.822C74.6891 138.361 74.9504 137.719 74.9504 137.067C74.9504 136.414 74.6891 135.772 74.2319 135.312C73.7747 134.848 73.1443 134.583 72.5009 134.583Z" fill="black"/>
<path d="M72.5009 12.3325C72.9287 12.3325 73.35 12.157 73.6538 11.8491C73.9575 11.5411 74.1338 11.114 74.1338 10.677C74.1338 10.2399 73.9575 9.81612 73.6538 9.50489C73.35 9.19697 72.9287 9.02148 72.5009 9.02148C72.0698 9.02148 71.6485 9.19697 71.3447 9.50489C71.041 9.81281 70.8679 10.2399 70.8679 10.677C70.8679 11.114 71.041 11.5411 71.3447 11.8491C71.6485 12.157 72.0698 12.3325 72.5009 12.3325Z" fill="black"/>
<g clip-path="url(#clip0)">
<path d="M68.7443 80.5297C62.3492 73.2757 60.9053 66.0216 60.5795 63.1153C60.4885 62.3116 60.7323 61.5057 61.2391 60.9348L66.4143 55.0671C67.1756 54.2041 67.3107 52.8592 66.7401 51.824L58.5002 37.3106C57.8689 36.1644 56.5727 35.7507 55.5072 36.3554L42.2793 43.4221C41.4176 43.9034 40.9108 44.9419 41.0086 46.0257C41.7017 53.4947 44.5723 71.8553 60.479 89.9C76.3857 107.945 92.5697 111.2 99.1577 111.986C100.113 112.097 101.029 111.522 101.453 110.545L107.683 95.5397C108.214 94.3336 107.852 92.8673 106.845 92.1499L94.0506 82.8058C93.1386 82.1579 91.953 82.31 91.1916 83.1727L86.0187 89.043C85.5154 89.618 84.805 89.8945 84.0965 89.7913C81.5344 89.4217 75.1393 87.7838 68.7443 80.5297Z" fill="black"/>
<path d="M94.138 76.6208C92.862 76.6208 91.8276 75.4474 91.8276 74.0001C91.8168 63.1499 84.0653 54.3572 74.5 54.3449C73.2241 54.3449 72.1897 53.1716 72.1897 51.7242C72.1897 50.2768 73.2241 49.1035 74.5 49.1035C86.6162 49.1187 96.4349 60.2564 96.4483 74.0001C96.4483 75.4474 95.4139 76.6208 94.138 76.6208Z" fill="black"/>
<path d="M105.69 76.6207C104.414 76.6207 103.379 75.4474 103.379 74C103.362 55.9163 90.4423 41.2616 74.5 41.2414C73.2241 41.2414 72.1897 40.0681 72.1897 38.6207C72.1897 37.1733 73.2241 36 74.5 36C92.9931 36.0231 107.98 53.0228 108 74C108 74.695 107.757 75.3616 107.323 75.8531C106.89 76.3446 106.302 76.6207 105.69 76.6207Z" fill="black"/>
</g>
<defs>
<clipPath id="clip0">
<rect width="67" height="76" fill="white" transform="translate(41 36)"/>
</clipPath>
</defs>
</svg>
